<?xml version="1.0" encoding="utf-8"?><svg viewBox="0 0 196 51" xmlns="http://www.w3.org/2000/svg" xmlns:xlink="http://www.w3.org/1999/xlink"><style>:root>svg{display:none}:root>svg:target{display:block}</style><svg fill="none" viewBox="0 0 14 14" id="img--icon--Star" xmlns="http://www.w3.org/2000/svg"><path fill-rule="evenodd" clip-rule="evenodd" d="M7 10.896l-3.878 2.039.74-4.318L.727 5.559l4.335-.63L7 1 8.94 4.929l4.335.63-3.137 3.058.74 4.318L7 10.896z" fill="#759C4B" stroke="#759C4B" stroke-linecap="round" stroke-linejoin="round"/></svg><svg fill="none" viewBox="0 0 24 24" id="img--icon--Subtract" xmlns="http://www.w3.org/2000/svg"><path fill-rule="evenodd" clip-rule="evenodd" d="M12 24c6.627 0 12-5.373 12-12S18.627 0 12 0 0 5.373 0 12s5.373 12 12 12zm-2-7.67L16 12l-6-4.33v8.66z" fill="#759C4B"/></svg><svg fill="none" viewBox="0 0 12 10" id="img--icon--Vector1" xmlns="http://www.w3.org/2000/svg"><path d="M1 6.09L4.846 9 11 1" stroke="#fff"/></svg><svg viewBox="0 0 7 12" fill="none" id="img--icon--VectorS" xmlns="http://www.w3.org/2000/svg"><path fill-rule="evenodd" clip-rule="evenodd" d="M.362.195c.26-.26.682-.26.943 0L6.638 5.53c.26.26.26.682 0 .942l-5.333 5.334a.667.667 0 11-.943-.943L5.224 6 .362 1.138a.667.667 0 010-.943z" fill="#759C4B"/></svg><svg fill="none" viewBox="0 0 16 12" id="img--icon--VectorStroke" xmlns="http://www.w3.org/2000/svg"><path fill-rule="evenodd" clip-rule="evenodd" d="M6.133 0L0 6l6.133 6 .719-.657-4.978-4.87H16v-.946H1.874L6.852.657 6.132 0z" fill="#2F3032"/></svg><svg fill="none" viewBox="0 0 30 30" id="img--icon--basket" xmlns="http://www.w3.org/2000/svg"><path clip-rule="evenodd" d="M7.138 7.5h19.477L24.76 18.75H8.993L7.138 7.5z" stroke="#759C4B" stroke-linecap="round" stroke-linejoin="round"/><path clip-rule="evenodd" d="M11.25 25a1.25 1.25 0 100-2.5 1.25 1.25 0 000 2.5zM22.5 25a1.25 1.25 0 100-2.5 1.25 1.25 0 000 2.5z" stroke="#759C4B"/><path d="M8.75 7.5h-5" stroke="#759C4B" stroke-linecap="round"/></svg><svg fill="none" viewBox="0 0 33 32" id="img--icon--carbon_phone-filled" xmlns="http://www.w3.org/2000/svg"><path d="M19.532 20.214l1.722-1.723a1.683 1.683 0 011.8-.37l2.098.84a1.677 1.677 0 011.046 1.538v3.845a1.67 1.67 0 01-1.753 1.654C9.737 25.083 6.769 12.622 6.208 7.854A1.67 1.67 0 017.876 6h3.714a1.66 1.66 0 011.537 1.046l.838 2.1a1.662 1.662 0 01-.36 1.8l-1.723 1.723s.992 6.714 7.65 7.545z" fill="#fff"/></svg><svg fill="none" viewBox="0 0 30 30" id="img--icon--cart" xmlns="http://www.w3.org/2000/svg"><path clip-rule="evenodd" d="M7.138 7.5h19.477L24.76 18.75H8.993L7.138 7.5z" stroke="#759C4B" stroke-linecap="round" stroke-linejoin="round"/><path clip-rule="evenodd" d="M11.25 25a1.25 1.25 0 100-2.5 1.25 1.25 0 000 2.5zM22.5 25a1.25 1.25 0 100-2.5 1.25 1.25 0 000 2.5z" stroke="#759C4B"/><path d="M8.75 7.5h-5" stroke="#759C4B" stroke-linecap="round"/></svg><svg fill="none" viewBox="0 0 24 24" id="img--icon--fc" xmlns="http://www.w3.org/2000/svg"><path d="M12 .48C5.638.48.48 5.638.48 12c0 6.362 5.158 11.52 11.52 11.52 6.362 0 11.52-5.158 11.52-11.52C23.52 5.638 18.362.48 12 .48zm2.729 7.96h-1.732c-.205 0-.433.27-.433.63v1.25h2.166l-.328 1.783h-1.838v5.353H10.52v-5.353H8.666V10.32h1.854V9.271c0-1.505 1.044-2.727 2.477-2.727h1.732V8.44z" fill="#759C4B"/></svg><svg fill="none" viewBox="0 0 24 24" id="img--icon--in" xmlns="http://www.w3.org/2000/svg"><path d="M12 .48C5.638.48.48 5.638.48 12c0 6.362 5.158 11.52 11.52 11.52 6.362 0 11.52-5.158 11.52-11.52C23.52 5.638 18.362.48 12 .48zM9.18 16.775H6.847V9.268H9.18v7.507zM8 8.346c-.738 0-1.214-.522-1.214-1.168 0-.658.49-1.165 1.243-1.165.753 0 1.213.507 1.228 1.165 0 .646-.475 1.168-1.258 1.168zm9.7 8.429h-2.333v-4.16c0-.969-.338-1.627-1.182-1.627-.644 0-1.027.446-1.196.874-.063.152-.078.368-.078.583v4.329h-2.334v-5.112c0-.938-.03-1.721-.061-2.396h2.026l.107 1.043h.047c.307-.49 1.06-1.212 2.318-1.212 1.535 0 2.686 1.029 2.686 3.239v4.439z" fill="#759C4B"/></svg><svg fill="none" viewBox="0 0 24 24" id="img--icon--like" xmlns="http://www.w3.org/2000/svg"><path d="M12 21l-1.45-1.295C5.4 15.125 2 12.103 2 8.395 2 5.374 4.42 3 7.5 3c1.74 0 3.41.795 4.5 2.05A6.037 6.037 0 0116.5 3C19.58 3 22 5.374 22 8.395c0 3.708-3.4 6.73-8.55 11.32L12 21z" stroke="#759C4B"/></svg><svg fill="none" viewBox="0 0 196 51" id="img--icon--logo" xmlns="http://www.w3.org/2000/svg"><g fill="#000"><path d="M41.066 1.946h-6.14c-.61 0-.975.283-.975.767v.161c0 1.13 2.277 1.615 1.667 3.47l-4.839 15.173-4.391-15.172c-.61-2.139 1.83-2.34 1.83-3.51v-.122c0-.484-.407-.767-.976-.767h-9.84c-.569 0-.935.283-.935.767v.121c0 1.17 2.114 1.776 2.643 3.51l.976 3.027-4.025 12.267-5.652-15.253c-.691-1.896 1.504-2.38 1.504-3.51v-.162c0-.484-.366-.767-.935-.767H.976c-.61 0-.976.283-.976.767v.121c0 1.17 1.708 1.412 2.643 3.551l9.514 22.355c.529 1.251 1.139 1.857 2.643 1.857 1.138 0 1.992-.646 2.44-2.018l4.635-13.841 4.594 14.002c.407 1.251 1.383 1.857 2.684 1.857 1.26 0 2.236-.606 2.724-2.018l7.685-22.234c.732-2.18 2.44-2.34 2.44-3.47v-.162c0-.484-.367-.767-.936-.767zM64.869 26.158l-.529-7.264c-.447-6.093-4.188-8.07-7.725-8.07-2.074 0-3.781.686-4.96 1.896V1.018c0-.928-.61-1.25-1.546-.847l-6.424 2.824c-.569.243-.935.646-.935 1.13v.121c0 1.13 1.992 1.332 1.992 3.229v18.723c0 1.856-1.789 2.3-1.789 3.47v.162c0 .484.366.767.935.767h8.824c.569 0 .975-.283.975-.767v-.162c0-1.17-1.83-1.614-1.83-3.47v-8.797c0-2.34.855-3.914 2.644-3.914 1.87 0 2.643 1.493 2.846 5.165l.406 7.506c.082 1.856-1.463 2.34-1.463 3.51v.162c0 .484.366.767.976.767h8.09c.61 0 .977-.283.977-.767v-.162c0-1.17-1.302-1.654-1.464-3.51zM73.343 8.847c2.765 0 4.635-1.776 4.635-4.036 0-2.3-1.87-4.035-4.635-4.035-2.805 0-4.676 1.735-4.676 4.035 0 2.26 1.87 4.036 4.676 4.036zm-4.35 21.75h8.741c.61 0 1.017-.283 1.017-.767v-.162c0-1.17-1.83-1.654-1.83-3.51V11.873c0-.767-.691-1.412-1.83-.847l-6.14 2.986c-.568.282-.934.484-.934.928v.161c0 .969 1.626 1.534 1.626 3.39v7.667c0 1.856-1.626 2.34-1.626 3.51v.162c0 .484.366.767.976.767zM88.939 31c4.432 0 6.75-3.268 6.75-6.376 0-.766-.976-1.008-1.546-.282-.447.726-1.097 1.493-2.683 1.493-1.017 0-1.83-.807-1.83-2.18v-9.684h4.188a.917.917 0 00.935-.928v-.887a.917.917 0 00-.935-.929H89.63V7.152c0-.646-.447-1.05-1.098-1.05h-.935c-.528 0-.976.404-1.098 1.05-.528 2.461-2.48 4.075-4.96 4.075h-.773c-.569 0-.935.364-.935.928v.888c0 .525.407.928.935.928h1.545v9.564c0 4.883 2.603 7.465 6.628 7.465zM105.338 31c4.432 0 6.749-3.268 6.749-6.376 0-.766-.976-1.008-1.545-.282-.447.726-1.098 1.493-2.683 1.493-1.017 0-1.83-.807-1.83-2.18v-9.684h4.188a.917.917 0 00.935-.928v-.887a.917.917 0 00-.935-.929h-4.188V7.152c0-.646-.447-1.05-1.098-1.05h-.935c-.529 0-.976.404-1.098 1.05-.528 2.461-2.48 4.075-4.96 4.075h-.773c-.569 0-.935.364-.935.928v.888c0 .525.407.928.935.928h1.545v9.564c0 4.883 2.602 7.465 6.628 7.465zM132.593 26.198v-7.344c-.651-5.004 1.716-9.38-3.733-9.38-4.147 0-14.294.866-14.294 4.175 0 .87 2.739.322 4.447.322 3.619 0 1.382-1.17 4.187-1.17 2.115 0 1.017 2.018 1.505 6.78v.12c-1.017-.605-2.399-1.009-4.107-1.009-3.863 0-7.319 2.099-7.319 6.174 0 4.157 3.334 6.134 7.685 6.134 2.684 0 4.31-.928 5.164-2.098.325 1.452 1.504 1.937 3.944 1.937 2.236 0 4.594-.283 4.594-1.332 0-1.13-1.707-.444-2.073-3.309zm-9.393 2.744c-1.667 0-2.643-2.502-2.643-5.367 0-1.654.854-2.744 2.074-2.744 1.179 0 2.236.928 2.521 3.35l.163 1.856c0 1.372-.773 2.905-2.115 2.905zM157.264 27.207l-6.546-9.281 2.602-2.38c1.627-1.494 3.822-2.26 3.822-3.39v-.162c0-.484-.366-.767-.935-.767h-6.424c-.569 0-.935.323-.935.807v.162c0 1.09 2.277 2.34 1.016 3.39l-5.489 4.68V1.1c0-.726-.691-1.372-1.83-.847l-6.505 2.986c-.529.282-.895.484-.895.928v.161c0 1.009 1.952 1.534 1.952 3.43v18.441c0 1.856-1.626 2.3-1.626 3.47v.162c0 .484.406.767.975.767h8.783c.569 0 .976-.283.976-.767v-.162c0-1.17-1.83-1.614-1.83-3.47v-2.421l2.033-1.856 3.578 5.286c.651 1.009-.854 1.331-.854 2.461v.121c0 .485.366.807.935.807h8.539c.569 0 .935-.282.935-.766v-.162c0-1.13-1.667-1.573-2.277-2.461z"/><path d="M175.334 24.22c-.731.97-2.317 1.776-4.065 1.776-1.993 0-3.579-.968-4.636-2.623l8.092-4.52c.935-.483 1.585-1.29 1.585-2.5 0-2.543-2.439-5.53-7.766-5.53-5.326 0-10.002 3.996-10.002 9.968 0 6.133 4.147 10.209 10.043 10.209 5.326 0 8.173-3.995 8.254-6.214.041-.888-.935-1.13-1.505-.565zm-7.522-11.419c2.074 0 2.725 2.865 2.725 4.156 0 .848-.407 1.614-1.058 2.058l-3.781 2.26c-.406-1.21-.61-2.663-.61-4.237 0-2.34 1.057-4.237 2.724-4.237zM192.178 10.824c-2.806 0-4.717 1.412-5.611 3.995v-2.946c0-.807-.407-1.372-1.464-.888l-5.733 2.664c-.61.322-.935.686-.935 1.17v.12c0 1.171 1.952 1.332 1.952 3.229v8.03c0 1.856-1.627 2.34-1.627 3.47v.162c0 .484.407.767.976.767h8.742c.569 0 .976-.283.976-.767v-.162c0-1.13-2.155-1.614-2.155-3.47v-7.506c0-1.775.203-3.873 1.504-3.873 2.033 0 .366 3.793 4.066 3.793 2.358 0 3.131-1.776 3.131-3.793 0-2.26-1.423-3.995-3.822-3.995zM74.004 47.403c-.995 0-1.869-.22-2.623-.66a4.734 4.734 0 01-1.748-1.859c-.422-.79-.633-1.703-.633-2.743 0-.85.14-1.593.422-2.233.281-.65.663-1.19 1.146-1.619.482-.43 1.03-.75 1.642-.96a5.583 5.583 0 011.9-.329c.593 0 1.16.07 1.703.21.553.13 1.095.32 1.628.57-.07.35-.116.724-.136 1.124-.02.39-.03.79-.03 1.199a1.91 1.91 0 01-.528.135c-.22.03-.432.045-.633.045-.02-.92-.2-1.544-.542-1.874-.342-.34-.8-.51-1.372-.51-.683 0-1.236.185-1.658.555-.412.36-.713.834-.904 1.424a6.258 6.258 0 00-.272 1.874c0 .839.126 1.598.377 2.278.261.68.643 1.22 1.146 1.619.502.39 1.125.584 1.869.584.854 0 1.703-.25 2.547-.75.08.07.15.17.211.3.07.12.116.236.136.346-.472.38-1.005.689-1.598.929-.583.23-1.266.345-2.05.345zM82.424 47.403c-1.196 0-2.12-.315-2.774-.945-.643-.63-.965-1.479-.965-2.548 0-.77.166-1.424.498-1.963.331-.54.784-.955 1.356-1.245.573-.29 1.221-.434 1.945-.434.824 0 1.512.15 2.065.45.563.3.985.714 1.266 1.243.291.52.437 1.125.437 1.814 0 .74-.156 1.38-.467 1.919-.312.54-.759.96-1.342 1.259-.572.3-1.246.45-2.02.45zm.196-.945c.472 0 .823-.22 1.055-.66.24-.449.361-1.009.361-1.678 0-.96-.175-1.689-.527-2.188-.342-.5-.744-.75-1.206-.75-.472 0-.824.22-1.055.66-.231.43-.347.969-.347 1.618 0 .89.151 1.614.452 2.174.302.55.724.824 1.267.824zM90.25 47.358c-.723 0-1.286-.2-1.688-.6-.392-.41-.588-1.13-.588-2.158v-1.77c0-.429-.05-.729-.15-.898-.1-.18-.372-.285-.814-.315 0-.15.01-.295.03-.435.02-.15.065-.29.136-.42a7.495 7.495 0 001.477-.165c.462-.1.809-.21 1.04-.33.13.05.236.14.316.27.08.12.12.3.12.54v3.163c0 .68.071 1.164.212 1.454.15.28.392.42.723.42.402 0 .749-.195 1.04-.585.292-.39.438-.994.438-1.814v-.96c0-.429-.066-.729-.196-.899-.121-.18-.417-.284-.89-.314 0-.15.005-.295.015-.435.02-.15.066-.29.136-.42.573-.01 1.1-.055 1.583-.134.482-.08.839-.175 1.07-.285.13.05.236.14.316.27.08.12.121.3.121.54v3.686c0 .47.05.785.15.945.101.16.347.245.74.255.01.17.004.334-.016.494-.01.16-.05.31-.12.45-.362.02-.744.07-1.146.15-.402.08-.769.195-1.1.345a.723.723 0 01-.362-.27c-.07-.12-.106-.315-.106-.585 0-.19.026-.42.076-.69a2.25 2.25 0 01-.528.795c-.23.21-.517.38-.859.51-.332.13-.723.195-1.175.195zM104.545 45.094c0 .5.055.845.166 1.035.12.18.316.27.588.27.05.13.08.27.09.419.02.14.03.305.03.495a52.19 52.19 0 00-1.869-.045h-.754c-.271.01-.532.015-.783.015-.252.01-.453.02-.603.03 0-.17.005-.33.015-.48.01-.16.04-.305.09-.435.282 0 .498-.1.648-.3.151-.2.226-.564.226-1.094V43.37c0-.63-.1-1.064-.301-1.304-.201-.25-.487-.374-.859-.374s-.709.205-1.01.614c-.301.41-.452 1.01-.452 1.799v.99c0 .509.065.854.196 1.034.14.18.361.27.663.27.05.14.08.284.09.434.02.14.031.3.031.48a48.43 48.43 0 00-.95-.03c-.402-.01-.769-.015-1.1-.015h-.784c-.282.01-.553.015-.814.015-.251.01-.452.02-.603.03 0-.19.01-.36.03-.51.02-.16.05-.295.09-.405.392 0 .654-.09.784-.27.141-.19.211-.534.211-1.034v-2.263c0-.28-.025-.505-.075-.675a.54.54 0 00-.302-.374c-.15-.09-.391-.145-.723-.165 0-.15.01-.295.03-.435.03-.15.08-.29.15-.42a8.514 8.514 0 001.538-.165c.503-.1.87-.21 1.1-.33.131.05.237.14.317.27.08.12.12.3.12.54 0 .27-.05.57-.15.9l.18-.36c.061-.12.142-.235.242-.345.201-.24.482-.455.844-.645s.779-.284 1.251-.284c.422 0 .814.08 1.176.24.372.16.668.42.889.779.231.36.347.834.347 1.424v2.308zM109.311 47.403c-.704 0-1.231-.18-1.583-.54-.342-.36-.513-.964-.513-1.814v-3.372c-.291-.11-.663-.175-1.115-.195 0-.18.01-.34.03-.48.03-.14.081-.29.151-.45h.934V38.71c.332-.05.659-.14.98-.27.322-.14.588-.295.799-.465.141.06.236.15.286.27.051.11.076.325.076.645v1.663h1.854c0 .18-.015.35-.045.51-.02.15-.051.295-.091.435-.673.01-1.246.085-1.718.225v3.072c0 .61.065 1.02.196 1.23.13.21.326.314.588.314.341 0 .653-.085.934-.255.141.18.216.425.226.735-.201.17-.487.31-.859.42a3.97 3.97 0 01-1.13.165zM115.37 44.675c0 .65.11 1.089.331 1.319.221.23.608.364 1.161.404.05.12.08.265.09.435.01.16.015.32.015.48-.261-.02-.613-.035-1.055-.045h-2.668c-.482.01-.864.025-1.145.045 0-.41.03-.715.09-.915.272-.02.483-.07.633-.15.151-.08.251-.224.302-.434.06-.21.09-.515.09-.915v-2.068c0-.28-.025-.505-.075-.675a.54.54 0 00-.302-.374c-.15-.09-.392-.145-.723-.165 0-.15.01-.295.03-.435.03-.15.08-.29.151-.42a8.512 8.512 0 001.537-.165c.503-.1.869-.21 1.1-.33.131.05.237.14.317.27.08.12.121.3.121.54 0 .23-.026.455-.076.675-.04.22-.095.474-.166.764.071-.18.136-.355.196-.525.061-.18.121-.314.181-.404.221-.35.493-.64.814-.87.322-.23.683-.344 1.085-.344.392 0 .749.12 1.071.36-.041.3-.076.659-.106 1.079-.03.41-.035.774-.015 1.094-.151.06-.352.105-.603.135a5.3 5.3 0 01-.648.045c-.01-.4-.075-.675-.196-.825a.522.522 0 00-.452-.24c-.161 0-.327.09-.498.27-.16.17-.301.4-.422.69-.11.28-.165.584-.165.914v.78zM124.649 42.8c.221-.549.286-.923.196-1.123-.091-.2-.317-.33-.679-.39-.04-.12-.075-.26-.105-.42-.02-.17-.03-.34-.03-.51.231.02.477.036.738.046H126.292c.251-.01.487-.025.708-.045 0 .14-.01.294-.03.464-.02.17-.055.325-.106.465-.261.06-.462.175-.603.345-.14.17-.306.484-.497.944l-2.216 5.246c-.291.68-.557 1.23-.799 1.65-.231.419-.452.739-.663.958-.211.22-.427.37-.648.45-.211.08-.437.12-.678.12-.322 0-.613-.06-.874-.18-.252-.11-.443-.245-.573-.405a2.9 2.9 0 01-.015-.674c.02-.27.065-.5.135-.69.171.04.372.08.603.12.241.04.498.06.769.06.322 0 .593-.055.814-.165.231-.11.432-.304.603-.584.09-.13.221-.375.392-.735-.251-.56-.518-1.144-.799-1.753a61.591 61.591 0 00-.814-1.784 48.578 48.578 0 00-.724-1.544c-.17-.37-.321-.65-.452-.84-.13-.19-.256-.32-.377-.39-.12-.07-.256-.12-.406-.15a2.128 2.128 0 01-.091-.434c-.02-.17-.03-.334-.03-.494.291.02.613.035.965.045h2.245c.433-.01.804-.025 1.116-.045 0 .17-.015.34-.045.51-.02.17-.051.309-.091.419-.452.07-.708.195-.769.375-.06.18.031.514.272 1.004.171.34.351.734.542 1.184.201.44.382.884.543 1.334l.95-2.383z"/></g></svg><svg fill="none" viewBox="0 0 22 22" id="img--icon--phone" xmlns="http://www.w3.org/2000/svg"><path d="M17.08 13.925l-4.16.812c-2.809-1.42-4.544-3.053-5.554-5.597l.778-4.202L6.674 1H2.886C1.747 1 .85 1.948 1.021 3.083c.424 2.832 1.676 7.967 5.335 11.654 3.843 3.871 9.378 5.551 12.424 6.22 1.177.257 2.22-.667 2.22-1.88v-3.648l-3.92-1.504z" stroke="#759C4B" stroke-linecap="round" stroke-linejoin="round"/></svg><svg fill="none" viewBox="0 0 24 24" id="img--icon--search" xmlns="http://www.w3.org/2000/svg"><path d="M14.412 14.412L20 20" stroke="#759C4B" stroke-linecap="round"/><path clip-rule="evenodd" d="M10 16a6 6 0 100-12 6 6 0 000 12z" stroke="#759C4B"/></svg><svg fill="none" viewBox="0 0 24 24" id="img--icon--user" xmlns="http://www.w3.org/2000/svg"><path d="M5.5 19.5S9 18 10 17s-2-1-2-6 4-5 4-5 4 0 4 5-3 5-2 6 4.5 2.5 4.5 2.5" stroke="#759C4B" stroke-linecap="round"/><path clip-rule="evenodd" d="M12 22c5.523 0 10-4.477 10-10S17.523 2 12 2 2 6.477 2 12s4.477 10 10 10z" stroke="#759C4B"/></svg></svg>